<svg id="Layer_1" data-name="Layer 1" xmlns="http://www.w3.org/2000/svg" viewBox="0 0 487.44 136.61"><defs><style>.cls-1{fill:#fff;}</style></defs><title>logo_IT_focus</title><path class="cls-1" d="M208.75,288.49a13.71,13.71,0,0,1,9.73-4h0a13.75,13.75,0,1,0-13.91-13.91,13.74,13.74,0,0,1-13.75,13.75,13.76,13.76,0,1,0,13.91,14.11A13.77,13.77,0,0,1,208.75,288.49Z" transform="translate(-177.23 -229.33)"/><path class="cls-1" d="M274.82,284l.6-.1c.23,0,.46-.11.7-.17l.58-.14.69-.24.56-.2.68-.32.53-.25c.23-.12.46-.27.69-.41s.32-.18.47-.28.49-.35.74-.54l.36-.27a13.17,13.17,0,0,0,1-.94,13.75,13.75,0,0,0,0-19.45,13.17,13.17,0,0,0-1-.94c-.12-.1-.24-.18-.37-.27s-.48-.38-.73-.54-.31-.19-.47-.28-.46-.29-.69-.41l-.52-.25-.69-.32-.56-.2-.69-.24-.59-.14c-.23-.06-.46-.13-.69-.17l-.6-.1-.7-.1c-.2,0-.41,0-.61,0s-.41,0-.61,0a13.76,13.76,0,0,1-13.76-13.75A13.76,13.76,0,1,0,245,256.84a13.6,13.6,0,1,1,.39,27.19h-.18c-.21,0-.42,0-.62,0l-.62,0c-.23,0-.46.06-.69.1l-.6.09-.7.17c-.19.05-.39.09-.58.15l-.69.24c-.19.07-.38.12-.56.2s-.46.21-.69.32-.35.15-.52.24-.46.27-.69.41-.32.18-.47.28-.49.36-.74.54l-.37.28c-.36.29-.7.6-1,.93s-.64.68-.93,1c-.09.12-.17.25-.27.37s-.37.48-.53.73-.19.3-.28.46-.28.45-.41.69-.16.34-.24.51-.22.45-.32.68-.14.37-.2.55-.17.46-.24.69-.1.38-.15.57-.12.46-.17.7-.07.39-.1.59-.08.46-.1.69,0,.4,0,.6,0,.34,0,.51a13.75,13.75,0,0,1-13.75,14h0a13.75,13.75,0,1,0,13.91,13.92,13.74,13.74,0,0,1,13.75-13.76c.21,0,.41,0,.62,0l.61,0c.23,0,.46-.06.69-.1s.41-.05.6-.09l.7-.17c.19-.05.39-.09.58-.15s.46-.16.69-.24.38-.12.56-.2.46-.21.69-.32.35-.15.52-.24.46-.27.69-.41.32-.18.47-.28.5-.36.74-.54l.37-.28c.36-.29.7-.6,1-.93s.64-.68.93-1c.1-.12.18-.25.28-.37s.37-.48.54-.73.18-.32.28-.47.28-.46.41-.7.16-.34.24-.52.22-.45.32-.69.13-.37.2-.55.17-.46.24-.7.1-.38.15-.58.12-.46.17-.69.06-.4.09-.6.08-.47.1-.7,0-.41,0-.61,0-.41,0-.62a13.76,13.76,0,0,1,13.76-13.75c.2,0,.41,0,.61,0s.41,0,.61,0Z" transform="translate(-177.23 -229.33)"/><circle class="cls-1" cx="67.88" cy="122.86" r="13.75"/><circle class="cls-1" cx="122.57" cy="68.16" r="13.75"/><path class="cls-1" d="M345,273h-.59c-2.23,0-3.36.68-3.36,2v48.94c0,1.31,1.13,2,3.36,2H345c2.2,0,3.32-.66,3.32-2V275C348.33,273.64,347.21,273,345,273Z" transform="translate(-177.23 -229.33)"/><path class="cls-1" d="M399.5,278.6a3.58,3.58,0,0,0,.39-1.86v-1.21a3.6,3.6,0,0,0-.39-1.89,1.59,1.59,0,0,0-1.42-.68H363.9a1.55,1.55,0,0,0-1.42.69,3.54,3.54,0,0,0-.39,1.88v1.21a3.58,3.58,0,0,0,.39,1.86,1.59,1.59,0,0,0,1.42.7h12.92v44.62a1.65,1.65,0,0,0,.88,1.53,5.08,5.08,0,0,0,2.43.44h.59c1.53,0,3.36-.34,3.36-2V279.3h14A1.59,1.59,0,0,0,399.5,278.6Z" transform="translate(-177.23 -229.33)"/><path class="cls-1" d="M403.14,324.78a4.24,4.24,0,0,0,2,.36h1.07a4.27,4.27,0,0,0,2-.36,1.27,1.27,0,0,0,.69-1.19v-3.7c0-1-.91-1.56-2.69-1.56h-1.07c-1.79,0-2.69.52-2.69,1.56v3.7A1.27,1.27,0,0,0,403.14,324.78Z" transform="translate(-177.23 -229.33)"/><path class="cls-1" d="M428.47,325.45a5.08,5.08,0,0,0,2.43.44h.33a5,5,0,0,0,2.39-.44,1.66,1.66,0,0,0,.89-1.53V292.17h6.15a1.63,1.63,0,0,0,1.44-.68,3.46,3.46,0,0,0,.41-1.89v-.92a3.4,3.4,0,0,0-.41-1.89,1.65,1.65,0,0,0-1.44-.67h-6.15V280a8.87,8.87,0,0,1,.5-3.38,2.46,2.46,0,0,1,1.2-1.42,8.17,8.17,0,0,1,4.08-.19,6,6,0,0,0,1.13.18,1.32,1.32,0,0,0,1.12-.86,6.23,6.23,0,0,0,.57-1.61,7,7,0,0,0,.2-1.31c0-1.73-1.95-2.6-5.79-2.6a11.19,11.19,0,0,0-6.89,2.26c-2,1.53-3.05,4.34-3.05,8.34v6.74H425c-.69,0-1.85.33-1.85,2.56v.92c0,2.23,1.16,2.57,1.85,2.57h2.63v31.75A1.66,1.66,0,0,0,428.47,325.45Z" transform="translate(-177.23 -229.33)"/><path class="cls-1" d="M467,285.7c-5.61,0-10,1.79-13,5.34s-4.57,8.59-4.57,15.07,1.52,11.5,4.51,14.91,7.41,5.17,13.1,5.17,10-1.73,12.89-5.15,4.38-8.42,4.38-14.93-1.49-11.62-4.44-15.11S472.59,285.7,467,285.7Zm7.56,31c-1.68,2.29-4.22,3.4-7.77,3.4s-6.07-1.1-7.7-3.38-2.47-5.9-2.47-10.77.83-8.55,2.49-10.84,4.16-3.4,7.68-3.4,6.09,1.12,7.77,3.42,2.53,5.94,2.53,10.82S476.28,314.45,474.6,316.74Z" transform="translate(-177.23 -229.33)"/><path class="cls-1" d="M521.53,287.49a16.9,16.9,0,0,0-4.28-1.3,29.6,29.6,0,0,0-5.47-.49,18.66,18.66,0,0,0-12.84,4.61c-3.44,3.07-5.18,8.27-5.18,15.47s1.56,12.33,4.64,15.55,7.81,4.86,14.05,4.86a29.55,29.55,0,0,0,5.88-.57,16,16,0,0,0,4.39-1.49c.43-.24,1.76-1,1.76-2.06a4.08,4.08,0,0,0-.47-1.61,8.12,8.12,0,0,0-1.07-1.71c-.69-.83-1.16-.83-1.31-.83a.89.89,0,0,0-.44.15,1.52,1.52,0,0,1-.47.15l-.18.07a17.46,17.46,0,0,1-8.13,1.85,12.59,12.59,0,0,1-6.59-1.5A8.39,8.39,0,0,1,502.3,314a26.21,26.21,0,0,1-1.11-8.41c0-4.87.92-8.44,2.73-10.61s4.33-3.25,7.69-3.25a18.88,18.88,0,0,1,8,1.75l.42.17a1.35,1.35,0,0,0,.51.13c.63,0,1.13-.65,1.3-.86a8.25,8.25,0,0,0,1-1.78,4.69,4.69,0,0,0,.42-1.68C523.31,288.76,522.71,288.09,521.53,287.49Z" transform="translate(-177.23 -229.33)"/><path class="cls-1" d="M546.53,326.19a14.82,14.82,0,0,0,6.37-1.5A17,17,0,0,0,557,322l1-.9.3,1.32a11.52,11.52,0,0,0,.65,2,2,2,0,0,0,1.87,1.4,9.57,9.57,0,0,0,2.69-.41c1.08-.31,1.63-.86,1.63-1.65a24.66,24.66,0,0,0-.42-2.43,40.27,40.27,0,0,1-.42-6.95V288c0-1.31-1.13-2-3.36-2h-.29c-2.2,0-3.32.67-3.32,2v27.12l-.17.22a13.62,13.62,0,0,1-4,3.43,10,10,0,0,1-4.86,1.36,7.39,7.39,0,0,1-5.36-1.81,6.7,6.7,0,0,1-1.88-5.1V288c0-1.31-1.12-2-3.32-2h-.29c-2.23,0-3.36.67-3.36,2v25.81c0,3.85,1.12,6.91,3.33,9.1S542.66,326.19,546.53,326.19Z" transform="translate(-177.23 -229.33)"/><path class="cls-1" d="M576.44,323.67a14.85,14.85,0,0,0,4.44,2,21.1,21.1,0,0,0,6,.81,15.06,15.06,0,0,0,6.82-1.56,12.75,12.75,0,0,0,4.9-4.31,10.86,10.86,0,0,0,1.82-6.12,12.85,12.85,0,0,0-1.1-5.71,9.29,9.29,0,0,0-3.72-3.72,36.34,36.34,0,0,0-7.36-3,9.48,9.48,0,0,1-4.29-2.37,5.51,5.51,0,0,1-1.25-3.8,3.59,3.59,0,0,1,1.71-3.13,7.85,7.85,0,0,1,4.52-1.22,11,11,0,0,1,3.2.43,11.78,11.78,0,0,1,2.38.94c.94.51,1.09.56,1.21.56.62,0,1.12-.62,1.31-.86a7.21,7.21,0,0,0,1-1.81,4.83,4.83,0,0,0,.42-1.7c0-.66-.53-1.28-1.58-1.83a14.31,14.31,0,0,0-3.78-1.23,24.5,24.5,0,0,0-4.83-.46,14.73,14.73,0,0,0-6.53,1.41,11,11,0,0,0-4.54,4,10.57,10.57,0,0,0-1.63,5.76,12.09,12.09,0,0,0,1,5.06,8.93,8.93,0,0,0,3.28,3.69,23.39,23.39,0,0,0,6.35,2.72,22.33,22.33,0,0,1,4.36,1.71,5.58,5.58,0,0,1,2.17,1.95,5.29,5.29,0,0,1,.65,2.72c0,3.83-2.28,5.69-7,5.69a11.64,11.64,0,0,1-4.33-.73,20.9,20.9,0,0,1-3.48-1.81c-.55-.37-.77-.48-1-.48s-.66,0-1.37.86a7.94,7.94,0,0,0-1.09,1.73,3.69,3.69,0,0,0-.48,1.48C574.68,322.31,575.69,323.13,576.44,323.67Z" transform="translate(-177.23 -229.33)"/><path class="cls-1" d="M634.29,268.91a2.75,2.75,0,0,0-1.69-.63,2.35,2.35,0,0,0-1.74.8,37,37,0,0,0-7.34,9.54,51.62,51.62,0,0,0-4.81,12.57,62,62,0,0,0,0,28.92,52.26,52.26,0,0,0,4.81,12.57,36.66,36.66,0,0,0,7.26,9.48c1.22,1.22,2.59,1.22,3.61.07a2.49,2.49,0,0,0,.73-1.59,2.69,2.69,0,0,0-.75-1.68,43.48,43.48,0,0,1-7.81-14.66,62.68,62.68,0,0,1,0-37.37,43,43,0,0,1,7.93-14.68,3.15,3.15,0,0,0,.65-1.78A2,2,0,0,0,634.29,268.91Z" transform="translate(-177.23 -229.33)"/><path class="cls-1" d="M650.89,342.2a37.4,37.4,0,0,0,7.26-9.52A51.84,51.84,0,0,0,663,320.09a62.26,62.26,0,0,0,0-28.9,51.62,51.62,0,0,0-4.81-12.57,37.52,37.52,0,0,0-7.22-9.47,2.79,2.79,0,0,0-1.94-.95,2.19,2.19,0,0,0-1.69.85,2.5,2.5,0,0,0-.71,1.58,2.65,2.65,0,0,0,.71,1.69A43.28,43.28,0,0,1,655.11,287a62.86,62.86,0,0,1-.1,37.68,43.32,43.32,0,0,1-8.11,14.8,2.43,2.43,0,0,0-.52,1.27,2,2,0,0,0,.9,1.56A2.55,2.55,0,0,0,650.89,342.2Z" transform="translate(-177.23 -229.33)"/></svg>