<?xml version="1.0" encoding="UTF-8" standalone="no"?>
<svg
   width="512px"
   height="512px"
   viewBox="0 0 512 512"
   version="1.1"
   id="svg52"
   sodipodi:docname="logo-react.svg"
   inkscape:version="1.2.1 (9c6d41e410, 2022-07-14)"
   xmlns:inkscape="http://www.inkscape.org/namespaces/inkscape"
   xmlns:sodipodi="http://sodipodi.sourceforge.net/DTD/sodipodi-0.dtd"
   xmlns="http://www.w3.org/2000/svg"
   xmlns:svg="http://www.w3.org/2000/svg">
  <defs
     id="defs56" />
  <sodipodi:namedview
     id="namedview54"
     pagecolor="#ffffff"
     bordercolor="#000000"
     borderopacity="0.25"
     inkscape:showpageshadow="2"
     inkscape:pageopacity="0.0"
     inkscape:pagecheckerboard="0"
     inkscape:deskcolor="#d1d1d1"
     showgrid="false"
     showguides="true"
     inkscape:zoom="1.6347656"
     inkscape:cx="256.61171"
     inkscape:cy="256.30585"
     inkscape:window-width="1920"
     inkscape:window-height="1017"
     inkscape:window-x="1912"
     inkscape:window-y="-8"
     inkscape:window-maximized="1"
     inkscape:current-layer="svg52" />
  <title
     id="title46">ionicons-v5_logos</title>
  <path
     id="path48"
     d="M 354.02344 42 C 330.00659 41.826563 299.18989 57.080652 268.16992 84.140625 C 264.10326 87.700621 260.1207 91.367295 256.2207 95.140625 C 253.62071 92.633961 250.95403 90.179294 248.2207 87.779297 C 204.87075 49.199335 161.41982 32.949859 135.33984 48.089844 C 110.33987 62.599829 102.90946 105.68919 113.43945 159.61914 C 114.49279 164.95247 115.6769 170.26412 116.99023 175.55078 C 110.84024 177.30078 104.9007 179.17039 99.220703 181.15039 C 48.460754 198.90037 16 226.72987 16 255.58984 C 16 285.40981 50.839584 315.30947 103.76953 333.43945 C 108.06286 334.89945 112.3962 336.25643 116.76953 337.50977 C 115.34953 343.16976 114.09333 348.89303 113 354.67969 C 103.00001 407.67963 110.80002 449.74994 135.75 464.16992 C 161.51997 479.05991 204.75067 463.75934 246.89062 426.85938 C 250.22396 423.93938 253.5573 420.85604 256.89062 417.60938 C 261.10395 421.6827 265.4373 425.63737 269.89062 429.4707 C 310.69058 464.65067 350.98065 478.86038 375.89062 464.40039 C 401.6406 449.46041 410.01061 404.25948 399.14062 349.26953 C 398.30729 345.06954 397.34643 340.78349 396.25977 336.41016 C 399.29976 335.51016 402.27612 334.57914 405.18945 333.61914 C 460.1894 315.34916 496.01953 285.80911 496.01953 255.61914 C 495.99953 226.61917 462.5001 198.61069 410.66016 180.7207 C 405.54683 178.97404 400.3976 177.34651 395.21094 175.83984 C 396.07094 172.33985 396.86318 168.81929 397.58984 165.2793 C 409.28983 108.37935 401.63927 62.539204 375.5293 47.449219 C 369.2793 43.829222 362.02905 42.057812 354.02344 42 z M 355.01953 62.537109 C 359.01425 62.71574 362.4793 63.615002 365.31055 65.25 C 381.38053 74.539991 387.62929 112.00091 377.5293 161.13086 C 376.86263 164.33086 376.14247 167.51922 375.36914 170.69922 A 487.83 487.83 0 0 0 311.18945 160.53906 A 481.27 481.27 0 0 0 270.61914 109.78906 C 274.2058 106.30907 277.88063 102.92729 281.64062 99.640625 L 281.66016 99.640625 C 310.447 74.526275 337.70908 61.763045 355.01953 62.537109 z M 156.62891 62.988281 C 175.10307 62.237069 204.24831 76.099011 234.66016 103.13086 C 237.05015 105.26086 239.45938 107.49078 241.85938 109.80078 A 491.37 491.37 0 0 0 201 160.50977 A 499.12 499.12 0 0 0 136.93945 170.50977 C 135.71945 165.6031 134.62062 160.66278 133.64062 155.68945 C 124.59063 109.4595 130.58017 74.609366 145.66016 65.859375 C 148.6714 64.111877 152.36564 63.161638 156.62891 62.988281 z M 256.23047 124.48047 A 439.75 439.75 0 0 1 284.48047 158.66016 C 265.58049 157.76016 246.66688 157.76016 227.74023 158.66016 C 237.07023 146.32017 246.62048 134.87046 256.23047 124.48047 z M 256.0293 178.5293 C 270.81928 178.5293 285.55033 179.09945 299.82031 180.18945 C 307.9603 192.24944 315.66923 204.5828 322.94922 217.18945 C 330.22921 229.79611 337.1273 242.66241 343.64062 255.78906 C 337.21396 269.01572 330.33333 281.99715 323 294.73047 C 315.72667 307.39712 308.05999 319.81072 300 331.9707 C 285.75001 332.9707 270.99998 333.51953 256 333.51953 C 241.00001 333.51953 226.52905 333.05062 212.53906 332.14062 C 204.2524 320.01397 196.4334 307.58293 189.08008 294.84961 C 181.72675 282.11629 174.8996 269.1965 168.59961 256.08984 L 168.63086 256.08984 C 174.95085 242.90986 181.75746 229.98387 189.05078 217.31055 C 196.33744 204.64389 204.09365 192.26634 212.32031 180.17969 C 226.6003 179.09969 241.23931 178.5293 256.0293 178.5293 z M 186 182.81055 C 180.90001 190.77054 175.99263 198.84574 171.2793 207.03906 C 166.57221 215.22153 162.05153 223.50478 157.7168 231.88672 C 151.72301 217.70834 146.64716 203.75837 142.48047 190.28906 C 156.18046 187.21907 170.78002 184.71054 186 182.81055 z M 326.07031 182.86914 C 341.3803 184.80914 356.06986 187.38907 369.83984 190.53906 A 439.89 439.89 0 0 1 354.4707 231.92969 C 350.04404 223.49636 345.44015 215.16301 340.66016 206.92969 C 335.99349 198.8097 331.13031 190.78913 326.07031 182.86914 z M 122.53906 195.38086 A 493.54 493.54 0 0 0 145.93945 256.13086 A 502.46 502.46 0 0 0 122.25 317.71094 C 118.25 316.57094 114.30039 315.33333 110.40039 314 C 87.000414 306.00001 67.670377 295.55944 54.400391 284.18945 C 42.520403 273.99946 36.5 263.82984 36.5 255.58984 C 36.5 238.07986 62.559575 215.73983 106.01953 200.58984 C 111.47953 198.68985 116.98573 196.95419 122.53906 195.38086 z M 389.71094 195.64062 C 394.62093 197.07062 399.39047 198.57016 403.98047 200.16016 C 448.40042 215.48014 475.5 238.15986 475.5 255.58984 C 475.5 274.18983 446.23066 298.32939 398.7207 314.10938 C 396.10071 314.97937 393.40015 315.82063 390.66016 316.64062 A 483.26 483.26 0 0 0 366.34961 255.69922 A 481.52 481.52 0 0 0 389.71094 195.64062 z M 262.31055 212.99609 A 43 43 0 0 0 213.14062 255.55078 A 42.91 42.91 0 0 0 256 298.55078 A 43 43 0 0 0 262.31055 212.99609 z M 354.66992 279.50977 A 440.41 440.41 0 0 1 370.78906 321.83008 A 434.44 434.44 0 0 1 326 329.48047 C 331.07999 321.42048 335.99667 313.25999 340.75 305 C 345.58333 296.61334 350.22326 288.11642 354.66992 279.50977 z M 157.73047 280.25 C 162.07046 288.64999 166.60652 296.9473 171.33984 305.14062 C 176.15984 313.50062 181.18349 321.73628 186.41016 329.84961 A 435.28 435.28 0 0 1 142.16992 322.7207 C 146.40992 309.00072 151.63047 294.74999 157.73047 280.25 z M 376.40039 341.64062 C 377.38039 345.60062 378.24667 349.4793 379 353.2793 C 383.81 377.57927 384.50031 399.56002 381.32031 416.75 C 378.46032 432.18998 372.7096 442.48938 365.59961 446.60938 C 350.46962 455.38937 318.1202 443.98059 283.24023 413.89062 C 279.24024 410.45063 275.23992 406.76062 271.16992 402.89062 A 484.54 484.54 0 0 0 311.40039 351.68945 A 477.84 477.84 0 0 0 376.40039 341.64062 z M 136.63086 342.50977 A 480.85 480.85 0 0 0 201.32031 351.90039 A 501.2 501.2 0 0 0 242.51953 402.90039 C 239.53953 405.83039 236.49086 408.65086 233.38086 411.38086 C 214.75088 427.70084 196.09061 439.26962 179.64062 445.09961 C 164.86064 450.3296 153.09046 450.47914 145.98047 446.36914 C 130.84048 437.61915 124.54087 403.82972 133.13086 358.50977 C 134.15086 353.17644 135.31753 347.84309 136.63086 342.50977 z M 285 353.41992 A 439.33 439.33 0 0 1 256.80078 388.16016 C 247.08079 377.65017 237.37991 366.01952 227.91992 353.51953 C 237.11325 353.87953 246.47334 354.06055 256 354.06055 C 265.77999 354.06055 275.46001 353.84992 285 353.41992 z " />
</svg>
