<?xml version="1.0" encoding="UTF-8" standalone="no"?>
<!-- Generator: Adobe Illustrator 17.0.0, SVG Export Plug-In . SVG Version: 6.00 Build 0)  -->

<svg
   version="1.1"
   id="Your_Icon"
   x="0px"
   y="0px"
   width="100px"
   height="100px"
   viewBox="0 0 100 100"
   xml:space="preserve"
   sodipodi:docname="mongodb.svg"
   inkscape:version="1.2.1 (9c6d41e410, 2022-07-14)"
   xmlns:inkscape="http://www.inkscape.org/namespaces/inkscape"
   xmlns:sodipodi="http://sodipodi.sourceforge.net/DTD/sodipodi-0.dtd"
   xmlns="http://www.w3.org/2000/svg"
   xmlns:svg="http://www.w3.org/2000/svg"><defs
   id="defs9" /><sodipodi:namedview
   id="namedview7"
   pagecolor="#ffffff"
   bordercolor="#000000"
   borderopacity="0.25"
   inkscape:showpageshadow="2"
   inkscape:pageopacity="0.0"
   inkscape:pagecheckerboard="0"
   inkscape:deskcolor="#d1d1d1"
   showgrid="false"
   inkscape:zoom="8.37"
   inkscape:cx="50"
   inkscape:cy="50.059737"
   inkscape:window-width="1920"
   inkscape:window-height="1017"
   inkscape:window-x="1912"
   inkscape:window-y="-8"
   inkscape:window-maximized="1"
   inkscape:current-layer="Your_Icon" />
<path
   d="M51.167,0c-1.959,11.753-22.245,21.568-22.245,50.217c0,25.908,14.264,33.808,17.203,35.033  C51.511,79.617,50.677,33.056,51.167,0z"
   id="path2"
   style="fill:#ffffff" />
<path
   d="M51.875,6.375c2.5,6.625,18.918,23.273,18.918,43.842s-9.06,30.118-16.895,35.749c0,0,0,7.897,0,9.611  s-1.377,2.571-2.234,2.571s-2.418-0.796-2.418-2.143s0-9.427,0-9.427C56.346,83.395,52.242,27.066,51.875,6.375z"
   id="path4"
   style="fill:#ffffff" />
</svg>
